<?xml version="1.0" standalone="no"?>
<!DOCTYPE svg PUBLIC "-//W3C//DTD SVG 20010904//EN"
 "http://www.w3.org/TR/2001/REC-SVG-20010904/DTD/svg10.dtd">
<svg version="1.0" xmlns="http://www.w3.org/2000/svg"
 width="200.000000pt" height="200.000000pt" viewBox="0 0 200.000000 200.000000"
 preserveAspectRatio="xMidYMid meet">

<g transform="translate(0.000000,200.000000) scale(0.100000,-0.100000)"
fill="#000000" stroke="none">
<path d="M330 1010 l0 -180 30 0 30 0 0 70 0 70 76 0 c70 0 78 2 105 29 24 25
29 38 29 78 -1 88 -39 113 -174 113 l-96 0 0 -180z m188 104 c12 -8 22 -24 22
-34 0 -35 -28 -50 -91 -50 l-59 0 0 50 0 50 53 0 c31 0 61 -6 75 -16z"/>
<path d="M650 1010 l0 -180 30 0 30 0 0 78 c0 87 16 122 55 122 35 0 45 -27
45 -119 l0 -81 30 0 30 0 0 103 c-1 106 -6 124 -47 145 -29 16 -52 15 -85 -2
l-28 -15 0 65 0 64 -30 0 -30 0 0 -180z"/>
<path d="M1240 1115 c0 -28 -4 -35 -20 -35 -16 0 -20 -7 -20 -30 0 -23 4 -30
20 -30 18 0 20 -7 20 -54 0 -71 16 -114 51 -131 45 -24 87 -19 120 14 30 31
39 71 15 71 -8 0 -20 2 -28 5 -7 3 -17 -5 -23 -17 -7 -15 -19 -23 -35 -23 -24
0 -25 3 -28 68 l-3 67 61 0 60 0 0 30 0 30 -60 0 -60 0 0 35 c0 33 -2 35 -35
35 -33 0 -35 -2 -35 -35z"/>
<path d="M80 1073 c-43 -22 -80 -76 -80 -117 0 -77 70 -141 146 -133 99 10
154 113 104 194 -38 64 -110 87 -170 56z m106 -54 c15 -17 16 -22 4 -29 -10
-6 -20 -4 -32 7 -17 15 -48 12 -48 -5 0 -4 20 -13 44 -20 47 -12 63 -35 51
-71 -8 -25 -55 -44 -89 -35 -24 6 -56 38 -56 56 0 14 37 8 50 -7 16 -19 55
-16 55 5 0 8 -14 17 -32 21 -41 8 -63 26 -63 50 0 47 80 67 116 28z"/>
<path d="M995 1076 c-122 -54 -95 -239 37 -253 154 -15 205 192 61 253 -40 17
-59 17 -98 0z m97 -73 c21 -19 24 -71 6 -96 -35 -45 -118 -16 -118 42 0 62 67
95 112 54z"/>
<path d="M1545 1076 c-50 -23 -68 -51 -73 -115 -4 -56 -2 -61 30 -96 60 -66
162 -57 208 18 35 57 17 147 -35 181 -34 23 -95 28 -130 12z m97 -73 c27 -24
24 -87 -4 -107 -32 -22 -55 -20 -83 9 -29 28 -32 61 -9 93 18 27 69 30 96 5z"/>
<path d="M1868 1076 c-16 -8 -28 -11 -28 -5 0 5 -16 9 -35 9 l-35 0 0 -125 0
-125 35 0 35 0 0 84 c0 89 12 116 49 116 33 0 41 -22 41 -112 l0 -88 36 0 36
0 -4 105 c-2 88 -6 108 -23 125 -27 27 -74 34 -107 16z"/>
</g>
</svg>
